<mxfile host="Electron" modified="2023-06-13T13:46:18.971Z" agent="Mozilla/5.0 (Windows NT 10.0; Win64; x64) AppleWebKit/537.36 (KHTML, like Gecko) draw.io/21.3.7 Chrome/112.0.5615.204 Electron/24.5.0 Safari/537.36" etag="92-UQUJaT_eFbTl2Qou8" version="21.3.7" type="device">
  <diagram name="Pagina-1" id="FSMw72qSJg7fkMOQeDAK">
    <mxGraphModel dx="2234" dy="1244" grid="1" gridSize="10" guides="1" tooltips="1" connect="1" arrows="1" fold="1" page="0" pageScale="1" pageWidth="1600" pageHeight="900" math="0" shadow="0">
      <root>
        <mxCell id="0" />
        <mxCell id="1" parent="0" />
        <mxCell id="D1-AjjTe4C6SUy-_Dg9c-1" value="students" style="shape=table;startSize=30;container=1;collapsible=1;childLayout=tableLayout;fixedRows=1;rowLines=0;fontStyle=1;align=center;resizeLast=1;html=1;" vertex="1" parent="1">
          <mxGeometry x="360" y="210" width="180" height="300" as="geometry" />
        </mxCell>
        <mxCell id="D1-AjjTe4C6SUy-_Dg9c-2" value="" style="shape=tableRow;horizontal=0;startSize=0;swimlaneHead=0;swimlaneBody=0;fillColor=none;collapsible=0;dropTarget=0;points=[[0,0.5],[1,0.5]];portConstraint=eastwest;top=0;left=0;right=0;bottom=1;" vertex="1" parent="D1-AjjTe4C6SUy-_Dg9c-1">
          <mxGeometry y="30" width="180" height="30" as="geometry" />
        </mxCell>
        <mxCell id="D1-AjjTe4C6SUy-_Dg9c-3" value="PK" style="shape=partialRectangle;connectable=0;fillColor=none;top=0;left=0;bottom=0;right=0;fontStyle=1;overflow=hidden;whiteSpace=wrap;html=1;" vertex="1" parent="D1-AjjTe4C6SUy-_Dg9c-2">
          <mxGeometry width="30" height="30" as="geometry">
            <mxRectangle width="30" height="30" as="alternateBounds" />
          </mxGeometry>
        </mxCell>
        <mxCell id="D1-AjjTe4C6SUy-_Dg9c-4" value="id" style="shape=partialRectangle;connectable=0;fillColor=none;top=0;left=0;bottom=0;right=0;align=left;spacingLeft=6;fontStyle=5;overflow=hidden;whiteSpace=wrap;html=1;" vertex="1" parent="D1-AjjTe4C6SUy-_Dg9c-2">
          <mxGeometry x="30" width="150" height="30" as="geometry">
            <mxRectangle width="150" height="30" as="alternateBounds" />
          </mxGeometry>
        </mxCell>
        <mxCell id="D1-AjjTe4C6SUy-_Dg9c-5" value="" style="shape=tableRow;horizontal=0;startSize=0;swimlaneHead=0;swimlaneBody=0;fillColor=none;collapsible=0;dropTarget=0;points=[[0,0.5],[1,0.5]];portConstraint=eastwest;top=0;left=0;right=0;bottom=0;" vertex="1" parent="D1-AjjTe4C6SUy-_Dg9c-1">
          <mxGeometry y="60" width="180" height="30" as="geometry" />
        </mxCell>
        <mxCell id="D1-AjjTe4C6SUy-_Dg9c-6" value="" style="shape=partialRectangle;connectable=0;fillColor=none;top=0;left=0;bottom=0;right=0;editable=1;overflow=hidden;whiteSpace=wrap;html=1;" vertex="1" parent="D1-AjjTe4C6SUy-_Dg9c-5">
          <mxGeometry width="30" height="30" as="geometry">
            <mxRectangle width="30" height="30" as="alternateBounds" />
          </mxGeometry>
        </mxCell>
        <mxCell id="D1-AjjTe4C6SUy-_Dg9c-7" value="first_name" style="shape=partialRectangle;connectable=0;fillColor=none;top=0;left=0;bottom=0;right=0;align=left;spacingLeft=6;overflow=hidden;whiteSpace=wrap;html=1;" vertex="1" parent="D1-AjjTe4C6SUy-_Dg9c-5">
          <mxGeometry x="30" width="150" height="30" as="geometry">
            <mxRectangle width="150" height="30" as="alternateBounds" />
          </mxGeometry>
        </mxCell>
        <mxCell id="D1-AjjTe4C6SUy-_Dg9c-8" value="" style="shape=tableRow;horizontal=0;startSize=0;swimlaneHead=0;swimlaneBody=0;fillColor=none;collapsible=0;dropTarget=0;points=[[0,0.5],[1,0.5]];portConstraint=eastwest;top=0;left=0;right=0;bottom=0;" vertex="1" parent="D1-AjjTe4C6SUy-_Dg9c-1">
          <mxGeometry y="90" width="180" height="30" as="geometry" />
        </mxCell>
        <mxCell id="D1-AjjTe4C6SUy-_Dg9c-9" value="" style="shape=partialRectangle;connectable=0;fillColor=none;top=0;left=0;bottom=0;right=0;editable=1;overflow=hidden;whiteSpace=wrap;html=1;" vertex="1" parent="D1-AjjTe4C6SUy-_Dg9c-8">
          <mxGeometry width="30" height="30" as="geometry">
            <mxRectangle width="30" height="30" as="alternateBounds" />
          </mxGeometry>
        </mxCell>
        <mxCell id="D1-AjjTe4C6SUy-_Dg9c-10" value="last_name" style="shape=partialRectangle;connectable=0;fillColor=none;top=0;left=0;bottom=0;right=0;align=left;spacingLeft=6;overflow=hidden;whiteSpace=wrap;html=1;" vertex="1" parent="D1-AjjTe4C6SUy-_Dg9c-8">
          <mxGeometry x="30" width="150" height="30" as="geometry">
            <mxRectangle width="150" height="30" as="alternateBounds" />
          </mxGeometry>
        </mxCell>
        <mxCell id="D1-AjjTe4C6SUy-_Dg9c-11" value="" style="shape=tableRow;horizontal=0;startSize=0;swimlaneHead=0;swimlaneBody=0;fillColor=none;collapsible=0;dropTarget=0;points=[[0,0.5],[1,0.5]];portConstraint=eastwest;top=0;left=0;right=0;bottom=0;" vertex="1" parent="D1-AjjTe4C6SUy-_Dg9c-1">
          <mxGeometry y="120" width="180" height="30" as="geometry" />
        </mxCell>
        <mxCell id="D1-AjjTe4C6SUy-_Dg9c-12" value="" style="shape=partialRectangle;connectable=0;fillColor=none;top=0;left=0;bottom=0;right=0;editable=1;overflow=hidden;whiteSpace=wrap;html=1;" vertex="1" parent="D1-AjjTe4C6SUy-_Dg9c-11">
          <mxGeometry width="30" height="30" as="geometry">
            <mxRectangle width="30" height="30" as="alternateBounds" />
          </mxGeometry>
        </mxCell>
        <mxCell id="D1-AjjTe4C6SUy-_Dg9c-13" value="registration_number" style="shape=partialRectangle;connectable=0;fillColor=none;top=0;left=0;bottom=0;right=0;align=left;spacingLeft=6;overflow=hidden;whiteSpace=wrap;html=1;" vertex="1" parent="D1-AjjTe4C6SUy-_Dg9c-11">
          <mxGeometry x="30" width="150" height="30" as="geometry">
            <mxRectangle width="150" height="30" as="alternateBounds" />
          </mxGeometry>
        </mxCell>
        <mxCell id="D1-AjjTe4C6SUy-_Dg9c-72" style="shape=tableRow;horizontal=0;startSize=0;swimlaneHead=0;swimlaneBody=0;fillColor=none;collapsible=0;dropTarget=0;points=[[0,0.5],[1,0.5]];portConstraint=eastwest;top=0;left=0;right=0;bottom=0;" vertex="1" parent="D1-AjjTe4C6SUy-_Dg9c-1">
          <mxGeometry y="150" width="180" height="30" as="geometry" />
        </mxCell>
        <mxCell id="D1-AjjTe4C6SUy-_Dg9c-73" style="shape=partialRectangle;connectable=0;fillColor=none;top=0;left=0;bottom=0;right=0;editable=1;overflow=hidden;whiteSpace=wrap;html=1;" vertex="1" parent="D1-AjjTe4C6SUy-_Dg9c-72">
          <mxGeometry width="30" height="30" as="geometry">
            <mxRectangle width="30" height="30" as="alternateBounds" />
          </mxGeometry>
        </mxCell>
        <mxCell id="D1-AjjTe4C6SUy-_Dg9c-74" value="birth_date" style="shape=partialRectangle;connectable=0;fillColor=none;top=0;left=0;bottom=0;right=0;align=left;spacingLeft=6;overflow=hidden;whiteSpace=wrap;html=1;" vertex="1" parent="D1-AjjTe4C6SUy-_Dg9c-72">
          <mxGeometry x="30" width="150" height="30" as="geometry">
            <mxRectangle width="150" height="30" as="alternateBounds" />
          </mxGeometry>
        </mxCell>
        <mxCell id="D1-AjjTe4C6SUy-_Dg9c-138" style="shape=tableRow;horizontal=0;startSize=0;swimlaneHead=0;swimlaneBody=0;fillColor=none;collapsible=0;dropTarget=0;points=[[0,0.5],[1,0.5]];portConstraint=eastwest;top=0;left=0;right=0;bottom=0;" vertex="1" parent="D1-AjjTe4C6SUy-_Dg9c-1">
          <mxGeometry y="180" width="180" height="30" as="geometry" />
        </mxCell>
        <mxCell id="D1-AjjTe4C6SUy-_Dg9c-139" style="shape=partialRectangle;connectable=0;fillColor=none;top=0;left=0;bottom=0;right=0;editable=1;overflow=hidden;whiteSpace=wrap;html=1;" vertex="1" parent="D1-AjjTe4C6SUy-_Dg9c-138">
          <mxGeometry width="30" height="30" as="geometry">
            <mxRectangle width="30" height="30" as="alternateBounds" />
          </mxGeometry>
        </mxCell>
        <mxCell id="D1-AjjTe4C6SUy-_Dg9c-140" value="registration_date" style="shape=partialRectangle;connectable=0;fillColor=none;top=0;left=0;bottom=0;right=0;align=left;spacingLeft=6;overflow=hidden;whiteSpace=wrap;html=1;" vertex="1" parent="D1-AjjTe4C6SUy-_Dg9c-138">
          <mxGeometry x="30" width="150" height="30" as="geometry">
            <mxRectangle width="150" height="30" as="alternateBounds" />
          </mxGeometry>
        </mxCell>
        <mxCell id="D1-AjjTe4C6SUy-_Dg9c-135" style="shape=tableRow;horizontal=0;startSize=0;swimlaneHead=0;swimlaneBody=0;fillColor=none;collapsible=0;dropTarget=0;points=[[0,0.5],[1,0.5]];portConstraint=eastwest;top=0;left=0;right=0;bottom=0;" vertex="1" parent="D1-AjjTe4C6SUy-_Dg9c-1">
          <mxGeometry y="210" width="180" height="30" as="geometry" />
        </mxCell>
        <mxCell id="D1-AjjTe4C6SUy-_Dg9c-136" value="FK" style="shape=partialRectangle;connectable=0;fillColor=none;top=0;left=0;bottom=0;right=0;editable=1;overflow=hidden;whiteSpace=wrap;html=1;" vertex="1" parent="D1-AjjTe4C6SUy-_Dg9c-135">
          <mxGeometry width="30" height="30" as="geometry">
            <mxRectangle width="30" height="30" as="alternateBounds" />
          </mxGeometry>
        </mxCell>
        <mxCell id="D1-AjjTe4C6SUy-_Dg9c-137" value="degree_id" style="shape=partialRectangle;connectable=0;fillColor=none;top=0;left=0;bottom=0;right=0;align=left;spacingLeft=6;overflow=hidden;whiteSpace=wrap;html=1;" vertex="1" parent="D1-AjjTe4C6SUy-_Dg9c-135">
          <mxGeometry x="30" width="150" height="30" as="geometry">
            <mxRectangle width="150" height="30" as="alternateBounds" />
          </mxGeometry>
        </mxCell>
        <mxCell id="D1-AjjTe4C6SUy-_Dg9c-66" style="shape=tableRow;horizontal=0;startSize=0;swimlaneHead=0;swimlaneBody=0;fillColor=none;collapsible=0;dropTarget=0;points=[[0,0.5],[1,0.5]];portConstraint=eastwest;top=0;left=0;right=0;bottom=0;" vertex="1" parent="D1-AjjTe4C6SUy-_Dg9c-1">
          <mxGeometry y="240" width="180" height="30" as="geometry" />
        </mxCell>
        <mxCell id="D1-AjjTe4C6SUy-_Dg9c-67" value="FK" style="shape=partialRectangle;connectable=0;fillColor=none;top=0;left=0;bottom=0;right=0;editable=1;overflow=hidden;whiteSpace=wrap;html=1;" vertex="1" parent="D1-AjjTe4C6SUy-_Dg9c-66">
          <mxGeometry width="30" height="30" as="geometry">
            <mxRectangle width="30" height="30" as="alternateBounds" />
          </mxGeometry>
        </mxCell>
        <mxCell id="D1-AjjTe4C6SUy-_Dg9c-68" value="department_id" style="shape=partialRectangle;connectable=0;fillColor=none;top=0;left=0;bottom=0;right=0;align=left;spacingLeft=6;overflow=hidden;whiteSpace=wrap;html=1;" vertex="1" parent="D1-AjjTe4C6SUy-_Dg9c-66">
          <mxGeometry x="30" width="150" height="30" as="geometry">
            <mxRectangle width="150" height="30" as="alternateBounds" />
          </mxGeometry>
        </mxCell>
        <mxCell id="D1-AjjTe4C6SUy-_Dg9c-329" style="shape=tableRow;horizontal=0;startSize=0;swimlaneHead=0;swimlaneBody=0;fillColor=none;collapsible=0;dropTarget=0;points=[[0,0.5],[1,0.5]];portConstraint=eastwest;top=0;left=0;right=0;bottom=0;" vertex="1" parent="D1-AjjTe4C6SUy-_Dg9c-1">
          <mxGeometry y="270" width="180" height="30" as="geometry" />
        </mxCell>
        <mxCell id="D1-AjjTe4C6SUy-_Dg9c-330" style="shape=partialRectangle;connectable=0;fillColor=none;top=0;left=0;bottom=0;right=0;editable=1;overflow=hidden;whiteSpace=wrap;html=1;" vertex="1" parent="D1-AjjTe4C6SUy-_Dg9c-329">
          <mxGeometry width="30" height="30" as="geometry">
            <mxRectangle width="30" height="30" as="alternateBounds" />
          </mxGeometry>
        </mxCell>
        <mxCell id="D1-AjjTe4C6SUy-_Dg9c-331" style="shape=partialRectangle;connectable=0;fillColor=none;top=0;left=0;bottom=0;right=0;align=left;spacingLeft=6;overflow=hidden;whiteSpace=wrap;html=1;" vertex="1" parent="D1-AjjTe4C6SUy-_Dg9c-329">
          <mxGeometry x="30" width="150" height="30" as="geometry">
            <mxRectangle width="150" height="30" as="alternateBounds" />
          </mxGeometry>
        </mxCell>
        <mxCell id="D1-AjjTe4C6SUy-_Dg9c-14" value="students" style="shape=table;startSize=30;container=1;collapsible=0;childLayout=tableLayout;strokeColor=default;fontSize=12;" vertex="1" parent="1">
          <mxGeometry x="-800" y="-280" width="640" height="390" as="geometry" />
        </mxCell>
        <mxCell id="D1-AjjTe4C6SUy-_Dg9c-15" value="" style="shape=tableRow;horizontal=0;startSize=0;swimlaneHead=0;swimlaneBody=0;strokeColor=inherit;top=0;left=0;bottom=0;right=0;collapsible=0;dropTarget=0;fillColor=none;points=[[0,0.5],[1,0.5]];portConstraint=eastwest;fontSize=12;" vertex="1" parent="D1-AjjTe4C6SUy-_Dg9c-14">
          <mxGeometry y="30" width="640" height="40" as="geometry" />
        </mxCell>
        <mxCell id="D1-AjjTe4C6SUy-_Dg9c-16" value="NOME CAMPO" style="shape=partialRectangle;html=1;whiteSpace=wrap;connectable=0;strokeColor=#FFFFFF;overflow=hidden;fillColor=#dae8fc;top=1;left=1;bottom=1;right=1;pointerEvents=1;fontSize=12;fontColor=#000000;" vertex="1" parent="D1-AjjTe4C6SUy-_Dg9c-15">
          <mxGeometry width="183" height="40" as="geometry">
            <mxRectangle width="183" height="40" as="alternateBounds" />
          </mxGeometry>
        </mxCell>
        <mxCell id="D1-AjjTe4C6SUy-_Dg9c-17" value="TIPO DI DATO" style="shape=partialRectangle;html=1;whiteSpace=wrap;connectable=0;strokeColor=#FFFFFF;overflow=hidden;fillColor=#dae8fc;top=1;left=1;bottom=1;right=1;pointerEvents=1;fontSize=12;fontColor=#000000;" vertex="1" parent="D1-AjjTe4C6SUy-_Dg9c-15">
          <mxGeometry x="183" width="182" height="40" as="geometry">
            <mxRectangle width="182" height="40" as="alternateBounds" />
          </mxGeometry>
        </mxCell>
        <mxCell id="D1-AjjTe4C6SUy-_Dg9c-18" value="ATTRIBUTI" style="shape=partialRectangle;html=1;whiteSpace=wrap;connectable=0;strokeColor=#FFFFFF;overflow=hidden;fillColor=#dae8fc;top=1;left=1;bottom=1;right=1;pointerEvents=1;fontSize=12;fontColor=#000000;" vertex="1" parent="D1-AjjTe4C6SUy-_Dg9c-15">
          <mxGeometry x="365" width="183" height="40" as="geometry">
            <mxRectangle width="183" height="40" as="alternateBounds" />
          </mxGeometry>
        </mxCell>
        <mxCell id="D1-AjjTe4C6SUy-_Dg9c-27" value="INDEX" style="shape=partialRectangle;html=1;whiteSpace=wrap;connectable=0;strokeColor=#FFFFFF;overflow=hidden;fillColor=#dae8fc;top=1;left=1;bottom=1;right=1;pointerEvents=1;fontSize=12;fontColor=#000000;" vertex="1" parent="D1-AjjTe4C6SUy-_Dg9c-15">
          <mxGeometry x="548" width="92" height="40" as="geometry">
            <mxRectangle width="92" height="40" as="alternateBounds" />
          </mxGeometry>
        </mxCell>
        <mxCell id="D1-AjjTe4C6SUy-_Dg9c-19" value="" style="shape=tableRow;horizontal=0;startSize=0;swimlaneHead=0;swimlaneBody=0;strokeColor=inherit;top=0;left=0;bottom=0;right=0;collapsible=0;dropTarget=0;fillColor=none;points=[[0,0.5],[1,0.5]];portConstraint=eastwest;fontSize=12;" vertex="1" parent="D1-AjjTe4C6SUy-_Dg9c-14">
          <mxGeometry y="70" width="640" height="40" as="geometry" />
        </mxCell>
        <mxCell id="D1-AjjTe4C6SUy-_Dg9c-20" value="id" style="shape=partialRectangle;html=1;whiteSpace=wrap;connectable=0;strokeColor=inherit;overflow=hidden;fillColor=none;top=0;left=0;bottom=0;right=0;pointerEvents=1;fontSize=12;" vertex="1" parent="D1-AjjTe4C6SUy-_Dg9c-19">
          <mxGeometry width="183" height="40" as="geometry">
            <mxRectangle width="183" height="40" as="alternateBounds" />
          </mxGeometry>
        </mxCell>
        <mxCell id="D1-AjjTe4C6SUy-_Dg9c-21" value="MEDIUMINT UNSIGNED" style="shape=partialRectangle;html=1;whiteSpace=wrap;connectable=0;strokeColor=inherit;overflow=hidden;fillColor=none;top=0;left=0;bottom=0;right=0;pointerEvents=1;fontSize=12;" vertex="1" parent="D1-AjjTe4C6SUy-_Dg9c-19">
          <mxGeometry x="183" width="182" height="40" as="geometry">
            <mxRectangle width="182" height="40" as="alternateBounds" />
          </mxGeometry>
        </mxCell>
        <mxCell id="D1-AjjTe4C6SUy-_Dg9c-22" value="AUTO_INCREMENT, UNIQUE" style="shape=partialRectangle;html=1;whiteSpace=wrap;connectable=0;strokeColor=inherit;overflow=hidden;fillColor=none;top=0;left=0;bottom=0;right=0;pointerEvents=1;fontSize=12;" vertex="1" parent="D1-AjjTe4C6SUy-_Dg9c-19">
          <mxGeometry x="365" width="183" height="40" as="geometry">
            <mxRectangle width="183" height="40" as="alternateBounds" />
          </mxGeometry>
        </mxCell>
        <mxCell id="D1-AjjTe4C6SUy-_Dg9c-28" value="PK" style="shape=partialRectangle;html=1;whiteSpace=wrap;connectable=0;strokeColor=inherit;overflow=hidden;fillColor=none;top=0;left=0;bottom=0;right=0;pointerEvents=1;fontSize=12;" vertex="1" parent="D1-AjjTe4C6SUy-_Dg9c-19">
          <mxGeometry x="548" width="92" height="40" as="geometry">
            <mxRectangle width="92" height="40" as="alternateBounds" />
          </mxGeometry>
        </mxCell>
        <mxCell id="D1-AjjTe4C6SUy-_Dg9c-23" value="" style="shape=tableRow;horizontal=0;startSize=0;swimlaneHead=0;swimlaneBody=0;strokeColor=inherit;top=0;left=0;bottom=0;right=0;collapsible=0;dropTarget=0;fillColor=none;points=[[0,0.5],[1,0.5]];portConstraint=eastwest;fontSize=12;" vertex="1" parent="D1-AjjTe4C6SUy-_Dg9c-14">
          <mxGeometry y="110" width="640" height="40" as="geometry" />
        </mxCell>
        <mxCell id="D1-AjjTe4C6SUy-_Dg9c-24" value="first_name" style="shape=partialRectangle;html=1;whiteSpace=wrap;connectable=0;strokeColor=inherit;overflow=hidden;fillColor=none;top=0;left=0;bottom=0;right=0;pointerEvents=1;fontSize=12;" vertex="1" parent="D1-AjjTe4C6SUy-_Dg9c-23">
          <mxGeometry width="183" height="40" as="geometry">
            <mxRectangle width="183" height="40" as="alternateBounds" />
          </mxGeometry>
        </mxCell>
        <mxCell id="D1-AjjTe4C6SUy-_Dg9c-25" value="VARCHAR(40)" style="shape=partialRectangle;html=1;whiteSpace=wrap;connectable=0;strokeColor=inherit;overflow=hidden;fillColor=none;top=0;left=0;bottom=0;right=0;pointerEvents=1;fontSize=12;" vertex="1" parent="D1-AjjTe4C6SUy-_Dg9c-23">
          <mxGeometry x="183" width="182" height="40" as="geometry">
            <mxRectangle width="182" height="40" as="alternateBounds" />
          </mxGeometry>
        </mxCell>
        <mxCell id="D1-AjjTe4C6SUy-_Dg9c-26" value="NOTNULL" style="shape=partialRectangle;html=1;whiteSpace=wrap;connectable=0;strokeColor=inherit;overflow=hidden;fillColor=none;top=0;left=0;bottom=0;right=0;pointerEvents=1;fontSize=12;" vertex="1" parent="D1-AjjTe4C6SUy-_Dg9c-23">
          <mxGeometry x="365" width="183" height="40" as="geometry">
            <mxRectangle width="183" height="40" as="alternateBounds" />
          </mxGeometry>
        </mxCell>
        <mxCell id="D1-AjjTe4C6SUy-_Dg9c-29" style="shape=partialRectangle;html=1;whiteSpace=wrap;connectable=0;strokeColor=inherit;overflow=hidden;fillColor=none;top=0;left=0;bottom=0;right=0;pointerEvents=1;fontSize=12;" vertex="1" parent="D1-AjjTe4C6SUy-_Dg9c-23">
          <mxGeometry x="548" width="92" height="40" as="geometry">
            <mxRectangle width="92" height="40" as="alternateBounds" />
          </mxGeometry>
        </mxCell>
        <mxCell id="D1-AjjTe4C6SUy-_Dg9c-30" style="shape=tableRow;horizontal=0;startSize=0;swimlaneHead=0;swimlaneBody=0;strokeColor=inherit;top=0;left=0;bottom=0;right=0;collapsible=0;dropTarget=0;fillColor=none;points=[[0,0.5],[1,0.5]];portConstraint=eastwest;fontSize=12;" vertex="1" parent="D1-AjjTe4C6SUy-_Dg9c-14">
          <mxGeometry y="150" width="640" height="40" as="geometry" />
        </mxCell>
        <mxCell id="D1-AjjTe4C6SUy-_Dg9c-31" value="last_name" style="shape=partialRectangle;html=1;whiteSpace=wrap;connectable=0;strokeColor=inherit;overflow=hidden;fillColor=none;top=0;left=0;bottom=0;right=0;pointerEvents=1;fontSize=12;" vertex="1" parent="D1-AjjTe4C6SUy-_Dg9c-30">
          <mxGeometry width="183" height="40" as="geometry">
            <mxRectangle width="183" height="40" as="alternateBounds" />
          </mxGeometry>
        </mxCell>
        <mxCell id="D1-AjjTe4C6SUy-_Dg9c-32" value="VARCHAR(40)" style="shape=partialRectangle;html=1;whiteSpace=wrap;connectable=0;strokeColor=inherit;overflow=hidden;fillColor=none;top=0;left=0;bottom=0;right=0;pointerEvents=1;fontSize=12;" vertex="1" parent="D1-AjjTe4C6SUy-_Dg9c-30">
          <mxGeometry x="183" width="182" height="40" as="geometry">
            <mxRectangle width="182" height="40" as="alternateBounds" />
          </mxGeometry>
        </mxCell>
        <mxCell id="D1-AjjTe4C6SUy-_Dg9c-33" value="NOTNULL" style="shape=partialRectangle;html=1;whiteSpace=wrap;connectable=0;strokeColor=inherit;overflow=hidden;fillColor=none;top=0;left=0;bottom=0;right=0;pointerEvents=1;fontSize=12;" vertex="1" parent="D1-AjjTe4C6SUy-_Dg9c-30">
          <mxGeometry x="365" width="183" height="40" as="geometry">
            <mxRectangle width="183" height="40" as="alternateBounds" />
          </mxGeometry>
        </mxCell>
        <mxCell id="D1-AjjTe4C6SUy-_Dg9c-34" value="index" style="shape=partialRectangle;html=1;whiteSpace=wrap;connectable=0;strokeColor=inherit;overflow=hidden;fillColor=none;top=0;left=0;bottom=0;right=0;pointerEvents=1;fontSize=12;" vertex="1" parent="D1-AjjTe4C6SUy-_Dg9c-30">
          <mxGeometry x="548" width="92" height="40" as="geometry">
            <mxRectangle width="92" height="40" as="alternateBounds" />
          </mxGeometry>
        </mxCell>
        <mxCell id="D1-AjjTe4C6SUy-_Dg9c-35" style="shape=tableRow;horizontal=0;startSize=0;swimlaneHead=0;swimlaneBody=0;strokeColor=inherit;top=0;left=0;bottom=0;right=0;collapsible=0;dropTarget=0;fillColor=none;points=[[0,0.5],[1,0.5]];portConstraint=eastwest;fontSize=12;" vertex="1" parent="D1-AjjTe4C6SUy-_Dg9c-14">
          <mxGeometry y="190" width="640" height="40" as="geometry" />
        </mxCell>
        <mxCell id="D1-AjjTe4C6SUy-_Dg9c-36" value="registration_number" style="shape=partialRectangle;html=1;whiteSpace=wrap;connectable=0;strokeColor=inherit;overflow=hidden;fillColor=none;top=0;left=0;bottom=0;right=0;pointerEvents=1;fontSize=12;" vertex="1" parent="D1-AjjTe4C6SUy-_Dg9c-35">
          <mxGeometry width="183" height="40" as="geometry">
            <mxRectangle width="183" height="40" as="alternateBounds" />
          </mxGeometry>
        </mxCell>
        <mxCell id="D1-AjjTe4C6SUy-_Dg9c-37" value="MEDIUMINT UNSIGNED" style="shape=partialRectangle;html=1;whiteSpace=wrap;connectable=0;strokeColor=inherit;overflow=hidden;fillColor=none;top=0;left=0;bottom=0;right=0;pointerEvents=1;fontSize=12;" vertex="1" parent="D1-AjjTe4C6SUy-_Dg9c-35">
          <mxGeometry x="183" width="182" height="40" as="geometry">
            <mxRectangle width="182" height="40" as="alternateBounds" />
          </mxGeometry>
        </mxCell>
        <mxCell id="D1-AjjTe4C6SUy-_Dg9c-38" value="NOTNULL" style="shape=partialRectangle;html=1;whiteSpace=wrap;connectable=0;strokeColor=inherit;overflow=hidden;fillColor=none;top=0;left=0;bottom=0;right=0;pointerEvents=1;fontSize=12;" vertex="1" parent="D1-AjjTe4C6SUy-_Dg9c-35">
          <mxGeometry x="365" width="183" height="40" as="geometry">
            <mxRectangle width="183" height="40" as="alternateBounds" />
          </mxGeometry>
        </mxCell>
        <mxCell id="D1-AjjTe4C6SUy-_Dg9c-39" value="index" style="shape=partialRectangle;html=1;whiteSpace=wrap;connectable=0;strokeColor=inherit;overflow=hidden;fillColor=none;top=0;left=0;bottom=0;right=0;pointerEvents=1;fontSize=12;" vertex="1" parent="D1-AjjTe4C6SUy-_Dg9c-35">
          <mxGeometry x="548" width="92" height="40" as="geometry">
            <mxRectangle width="92" height="40" as="alternateBounds" />
          </mxGeometry>
        </mxCell>
        <mxCell id="D1-AjjTe4C6SUy-_Dg9c-40" style="shape=tableRow;horizontal=0;startSize=0;swimlaneHead=0;swimlaneBody=0;strokeColor=inherit;top=0;left=0;bottom=0;right=0;collapsible=0;dropTarget=0;fillColor=none;points=[[0,0.5],[1,0.5]];portConstraint=eastwest;fontSize=12;" vertex="1" parent="D1-AjjTe4C6SUy-_Dg9c-14">
          <mxGeometry y="230" width="640" height="40" as="geometry" />
        </mxCell>
        <mxCell id="D1-AjjTe4C6SUy-_Dg9c-41" value="birth_date" style="shape=partialRectangle;html=1;whiteSpace=wrap;connectable=0;strokeColor=inherit;overflow=hidden;fillColor=none;top=0;left=0;bottom=0;right=0;pointerEvents=1;fontSize=12;" vertex="1" parent="D1-AjjTe4C6SUy-_Dg9c-40">
          <mxGeometry width="183" height="40" as="geometry">
            <mxRectangle width="183" height="40" as="alternateBounds" />
          </mxGeometry>
        </mxCell>
        <mxCell id="D1-AjjTe4C6SUy-_Dg9c-42" value="DATE" style="shape=partialRectangle;html=1;whiteSpace=wrap;connectable=0;strokeColor=inherit;overflow=hidden;fillColor=none;top=0;left=0;bottom=0;right=0;pointerEvents=1;fontSize=12;" vertex="1" parent="D1-AjjTe4C6SUy-_Dg9c-40">
          <mxGeometry x="183" width="182" height="40" as="geometry">
            <mxRectangle width="182" height="40" as="alternateBounds" />
          </mxGeometry>
        </mxCell>
        <mxCell id="D1-AjjTe4C6SUy-_Dg9c-43" style="shape=partialRectangle;html=1;whiteSpace=wrap;connectable=0;strokeColor=inherit;overflow=hidden;fillColor=none;top=0;left=0;bottom=0;right=0;pointerEvents=1;fontSize=12;" vertex="1" parent="D1-AjjTe4C6SUy-_Dg9c-40">
          <mxGeometry x="365" width="183" height="40" as="geometry">
            <mxRectangle width="183" height="40" as="alternateBounds" />
          </mxGeometry>
        </mxCell>
        <mxCell id="D1-AjjTe4C6SUy-_Dg9c-44" style="shape=partialRectangle;html=1;whiteSpace=wrap;connectable=0;strokeColor=inherit;overflow=hidden;fillColor=none;top=0;left=0;bottom=0;right=0;pointerEvents=1;fontSize=12;" vertex="1" parent="D1-AjjTe4C6SUy-_Dg9c-40">
          <mxGeometry x="548" width="92" height="40" as="geometry">
            <mxRectangle width="92" height="40" as="alternateBounds" />
          </mxGeometry>
        </mxCell>
        <mxCell id="D1-AjjTe4C6SUy-_Dg9c-45" style="shape=tableRow;horizontal=0;startSize=0;swimlaneHead=0;swimlaneBody=0;strokeColor=inherit;top=0;left=0;bottom=0;right=0;collapsible=0;dropTarget=0;fillColor=none;points=[[0,0.5],[1,0.5]];portConstraint=eastwest;fontSize=12;" vertex="1" parent="D1-AjjTe4C6SUy-_Dg9c-14">
          <mxGeometry y="270" width="640" height="40" as="geometry" />
        </mxCell>
        <mxCell id="D1-AjjTe4C6SUy-_Dg9c-46" value="registration_date" style="shape=partialRectangle;html=1;whiteSpace=wrap;connectable=0;strokeColor=inherit;overflow=hidden;fillColor=none;top=0;left=0;bottom=0;right=0;pointerEvents=1;fontSize=12;" vertex="1" parent="D1-AjjTe4C6SUy-_Dg9c-45">
          <mxGeometry width="183" height="40" as="geometry">
            <mxRectangle width="183" height="40" as="alternateBounds" />
          </mxGeometry>
        </mxCell>
        <mxCell id="D1-AjjTe4C6SUy-_Dg9c-47" value="DATE" style="shape=partialRectangle;html=1;whiteSpace=wrap;connectable=0;strokeColor=inherit;overflow=hidden;fillColor=none;top=0;left=0;bottom=0;right=0;pointerEvents=1;fontSize=12;" vertex="1" parent="D1-AjjTe4C6SUy-_Dg9c-45">
          <mxGeometry x="183" width="182" height="40" as="geometry">
            <mxRectangle width="182" height="40" as="alternateBounds" />
          </mxGeometry>
        </mxCell>
        <mxCell id="D1-AjjTe4C6SUy-_Dg9c-48" value="NOTNULL" style="shape=partialRectangle;html=1;whiteSpace=wrap;connectable=0;strokeColor=inherit;overflow=hidden;fillColor=none;top=0;left=0;bottom=0;right=0;pointerEvents=1;fontSize=12;" vertex="1" parent="D1-AjjTe4C6SUy-_Dg9c-45">
          <mxGeometry x="365" width="183" height="40" as="geometry">
            <mxRectangle width="183" height="40" as="alternateBounds" />
          </mxGeometry>
        </mxCell>
        <mxCell id="D1-AjjTe4C6SUy-_Dg9c-49" value="" style="shape=partialRectangle;html=1;whiteSpace=wrap;connectable=0;strokeColor=inherit;overflow=hidden;fillColor=none;top=0;left=0;bottom=0;right=0;pointerEvents=1;fontSize=12;" vertex="1" parent="D1-AjjTe4C6SUy-_Dg9c-45">
          <mxGeometry x="548" width="92" height="40" as="geometry">
            <mxRectangle width="92" height="40" as="alternateBounds" />
          </mxGeometry>
        </mxCell>
        <mxCell id="D1-AjjTe4C6SUy-_Dg9c-50" style="shape=tableRow;horizontal=0;startSize=0;swimlaneHead=0;swimlaneBody=0;strokeColor=inherit;top=0;left=0;bottom=0;right=0;collapsible=0;dropTarget=0;fillColor=none;points=[[0,0.5],[1,0.5]];portConstraint=eastwest;fontSize=12;" vertex="1" parent="D1-AjjTe4C6SUy-_Dg9c-14">
          <mxGeometry y="310" width="640" height="40" as="geometry" />
        </mxCell>
        <mxCell id="D1-AjjTe4C6SUy-_Dg9c-51" value="" style="shape=partialRectangle;html=1;whiteSpace=wrap;connectable=0;strokeColor=inherit;overflow=hidden;fillColor=none;top=0;left=0;bottom=0;right=0;pointerEvents=1;fontSize=12;" vertex="1" parent="D1-AjjTe4C6SUy-_Dg9c-50">
          <mxGeometry width="183" height="40" as="geometry">
            <mxRectangle width="183" height="40" as="alternateBounds" />
          </mxGeometry>
        </mxCell>
        <mxCell id="D1-AjjTe4C6SUy-_Dg9c-52" value="" style="shape=partialRectangle;html=1;whiteSpace=wrap;connectable=0;strokeColor=inherit;overflow=hidden;fillColor=none;top=0;left=0;bottom=0;right=0;pointerEvents=1;fontSize=12;" vertex="1" parent="D1-AjjTe4C6SUy-_Dg9c-50">
          <mxGeometry x="183" width="182" height="40" as="geometry">
            <mxRectangle width="182" height="40" as="alternateBounds" />
          </mxGeometry>
        </mxCell>
        <mxCell id="D1-AjjTe4C6SUy-_Dg9c-53" style="shape=partialRectangle;html=1;whiteSpace=wrap;connectable=0;strokeColor=inherit;overflow=hidden;fillColor=none;top=0;left=0;bottom=0;right=0;pointerEvents=1;fontSize=12;" vertex="1" parent="D1-AjjTe4C6SUy-_Dg9c-50">
          <mxGeometry x="365" width="183" height="40" as="geometry">
            <mxRectangle width="183" height="40" as="alternateBounds" />
          </mxGeometry>
        </mxCell>
        <mxCell id="D1-AjjTe4C6SUy-_Dg9c-54" value="FK" style="shape=partialRectangle;html=1;whiteSpace=wrap;connectable=0;strokeColor=inherit;overflow=hidden;fillColor=none;top=0;left=0;bottom=0;right=0;pointerEvents=1;fontSize=12;" vertex="1" parent="D1-AjjTe4C6SUy-_Dg9c-50">
          <mxGeometry x="548" width="92" height="40" as="geometry">
            <mxRectangle width="92" height="40" as="alternateBounds" />
          </mxGeometry>
        </mxCell>
        <mxCell id="D1-AjjTe4C6SUy-_Dg9c-55" style="shape=tableRow;horizontal=0;startSize=0;swimlaneHead=0;swimlaneBody=0;strokeColor=inherit;top=0;left=0;bottom=0;right=0;collapsible=0;dropTarget=0;fillColor=none;points=[[0,0.5],[1,0.5]];portConstraint=eastwest;fontSize=12;" vertex="1" parent="D1-AjjTe4C6SUy-_Dg9c-14">
          <mxGeometry y="350" width="640" height="40" as="geometry" />
        </mxCell>
        <mxCell id="D1-AjjTe4C6SUy-_Dg9c-56" style="shape=partialRectangle;html=1;whiteSpace=wrap;connectable=0;strokeColor=inherit;overflow=hidden;fillColor=none;top=0;left=0;bottom=0;right=0;pointerEvents=1;fontSize=12;" vertex="1" parent="D1-AjjTe4C6SUy-_Dg9c-55">
          <mxGeometry width="183" height="40" as="geometry">
            <mxRectangle width="183" height="40" as="alternateBounds" />
          </mxGeometry>
        </mxCell>
        <mxCell id="D1-AjjTe4C6SUy-_Dg9c-57" style="shape=partialRectangle;html=1;whiteSpace=wrap;connectable=0;strokeColor=inherit;overflow=hidden;fillColor=none;top=0;left=0;bottom=0;right=0;pointerEvents=1;fontSize=12;" vertex="1" parent="D1-AjjTe4C6SUy-_Dg9c-55">
          <mxGeometry x="183" width="182" height="40" as="geometry">
            <mxRectangle width="182" height="40" as="alternateBounds" />
          </mxGeometry>
        </mxCell>
        <mxCell id="D1-AjjTe4C6SUy-_Dg9c-58" style="shape=partialRectangle;html=1;whiteSpace=wrap;connectable=0;strokeColor=inherit;overflow=hidden;fillColor=none;top=0;left=0;bottom=0;right=0;pointerEvents=1;fontSize=12;" vertex="1" parent="D1-AjjTe4C6SUy-_Dg9c-55">
          <mxGeometry x="365" width="183" height="40" as="geometry">
            <mxRectangle width="183" height="40" as="alternateBounds" />
          </mxGeometry>
        </mxCell>
        <mxCell id="D1-AjjTe4C6SUy-_Dg9c-59" style="shape=partialRectangle;html=1;whiteSpace=wrap;connectable=0;strokeColor=inherit;overflow=hidden;fillColor=none;top=0;left=0;bottom=0;right=0;pointerEvents=1;fontSize=12;" vertex="1" parent="D1-AjjTe4C6SUy-_Dg9c-55">
          <mxGeometry x="548" width="92" height="40" as="geometry">
            <mxRectangle width="92" height="40" as="alternateBounds" />
          </mxGeometry>
        </mxCell>
        <mxCell id="D1-AjjTe4C6SUy-_Dg9c-120" style="shape=tableRow;horizontal=0;startSize=0;swimlaneHead=0;swimlaneBody=0;strokeColor=inherit;top=0;left=0;bottom=0;right=0;collapsible=0;dropTarget=0;fillColor=none;points=[[0,0.5],[1,0.5]];portConstraint=eastwest;fontSize=12;" vertex="1" parent="1">
          <mxGeometry x="-800" y="30" width="640" height="40" as="geometry" />
        </mxCell>
        <mxCell id="D1-AjjTe4C6SUy-_Dg9c-121" value="degree_id" style="shape=partialRectangle;html=1;whiteSpace=wrap;connectable=0;strokeColor=inherit;overflow=hidden;fillColor=none;top=0;left=0;bottom=0;right=0;pointerEvents=1;fontSize=12;" vertex="1" parent="D1-AjjTe4C6SUy-_Dg9c-120">
          <mxGeometry width="183" height="40" as="geometry">
            <mxRectangle width="183" height="40" as="alternateBounds" />
          </mxGeometry>
        </mxCell>
        <mxCell id="D1-AjjTe4C6SUy-_Dg9c-122" value="TINYINT UNSIGNED" style="shape=partialRectangle;html=1;whiteSpace=wrap;connectable=0;strokeColor=inherit;overflow=hidden;fillColor=none;top=0;left=0;bottom=0;right=0;pointerEvents=1;fontSize=12;" vertex="1" parent="D1-AjjTe4C6SUy-_Dg9c-120">
          <mxGeometry x="183" width="182" height="40" as="geometry">
            <mxRectangle width="182" height="40" as="alternateBounds" />
          </mxGeometry>
        </mxCell>
        <mxCell id="D1-AjjTe4C6SUy-_Dg9c-123" value="NOTNULL" style="shape=partialRectangle;html=1;whiteSpace=wrap;connectable=0;strokeColor=inherit;overflow=hidden;fillColor=none;top=0;left=0;bottom=0;right=0;pointerEvents=1;fontSize=12;" vertex="1" parent="D1-AjjTe4C6SUy-_Dg9c-120">
          <mxGeometry x="365" width="183" height="40" as="geometry">
            <mxRectangle width="183" height="40" as="alternateBounds" />
          </mxGeometry>
        </mxCell>
        <mxCell id="D1-AjjTe4C6SUy-_Dg9c-124" value="FK" style="shape=partialRectangle;html=1;whiteSpace=wrap;connectable=0;strokeColor=inherit;overflow=hidden;fillColor=none;top=0;left=0;bottom=0;right=0;pointerEvents=1;fontSize=12;" vertex="1" parent="D1-AjjTe4C6SUy-_Dg9c-120">
          <mxGeometry x="548" width="92" height="40" as="geometry">
            <mxRectangle width="92" height="40" as="alternateBounds" />
          </mxGeometry>
        </mxCell>
        <mxCell id="D1-AjjTe4C6SUy-_Dg9c-125" style="shape=tableRow;horizontal=0;startSize=0;swimlaneHead=0;swimlaneBody=0;strokeColor=inherit;top=0;left=0;bottom=0;right=0;collapsible=0;dropTarget=0;fillColor=none;points=[[0,0.5],[1,0.5]];portConstraint=eastwest;fontSize=12;" vertex="1" parent="1">
          <mxGeometry x="-800" y="70" width="640" height="40" as="geometry" />
        </mxCell>
        <mxCell id="D1-AjjTe4C6SUy-_Dg9c-127" value="TINYINT UNISIGNED" style="shape=partialRectangle;html=1;whiteSpace=wrap;connectable=0;strokeColor=inherit;overflow=hidden;fillColor=none;top=0;left=0;bottom=0;right=0;pointerEvents=1;fontSize=12;" vertex="1" parent="D1-AjjTe4C6SUy-_Dg9c-125">
          <mxGeometry x="183" width="182" height="40" as="geometry">
            <mxRectangle width="182" height="40" as="alternateBounds" />
          </mxGeometry>
        </mxCell>
        <mxCell id="D1-AjjTe4C6SUy-_Dg9c-128" value="NOTNULL" style="shape=partialRectangle;html=1;whiteSpace=wrap;connectable=0;strokeColor=inherit;overflow=hidden;fillColor=none;top=0;left=0;bottom=0;right=0;pointerEvents=1;fontSize=12;" vertex="1" parent="D1-AjjTe4C6SUy-_Dg9c-125">
          <mxGeometry x="365" width="183" height="40" as="geometry">
            <mxRectangle width="183" height="40" as="alternateBounds" />
          </mxGeometry>
        </mxCell>
        <mxCell id="D1-AjjTe4C6SUy-_Dg9c-129" value="FK" style="shape=partialRectangle;html=1;whiteSpace=wrap;connectable=0;strokeColor=inherit;overflow=hidden;fillColor=none;top=0;left=0;bottom=0;right=0;pointerEvents=1;fontSize=12;" vertex="1" parent="D1-AjjTe4C6SUy-_Dg9c-125">
          <mxGeometry x="548" width="92" height="40" as="geometry">
            <mxRectangle width="92" height="40" as="alternateBounds" />
          </mxGeometry>
        </mxCell>
        <mxCell id="D1-AjjTe4C6SUy-_Dg9c-152" value="degree_courses" style="shape=table;startSize=30;container=1;collapsible=0;childLayout=tableLayout;strokeColor=default;fontSize=12;" vertex="1" parent="1">
          <mxGeometry x="-130" y="-280" width="640" height="190" as="geometry" />
        </mxCell>
        <mxCell id="D1-AjjTe4C6SUy-_Dg9c-153" value="" style="shape=tableRow;horizontal=0;startSize=0;swimlaneHead=0;swimlaneBody=0;strokeColor=inherit;top=0;left=0;bottom=0;right=0;collapsible=0;dropTarget=0;fillColor=none;points=[[0,0.5],[1,0.5]];portConstraint=eastwest;fontSize=12;" vertex="1" parent="D1-AjjTe4C6SUy-_Dg9c-152">
          <mxGeometry y="30" width="640" height="40" as="geometry" />
        </mxCell>
        <mxCell id="D1-AjjTe4C6SUy-_Dg9c-154" value="NOME CAMPO" style="shape=partialRectangle;html=1;whiteSpace=wrap;connectable=0;strokeColor=#FFFFFF;overflow=hidden;fillColor=#dae8fc;top=1;left=1;bottom=1;right=1;pointerEvents=1;fontSize=12;fontColor=#000000;" vertex="1" parent="D1-AjjTe4C6SUy-_Dg9c-153">
          <mxGeometry width="183" height="40" as="geometry">
            <mxRectangle width="183" height="40" as="alternateBounds" />
          </mxGeometry>
        </mxCell>
        <mxCell id="D1-AjjTe4C6SUy-_Dg9c-155" value="TIPO DI DATO" style="shape=partialRectangle;html=1;whiteSpace=wrap;connectable=0;strokeColor=#FFFFFF;overflow=hidden;fillColor=#dae8fc;top=1;left=1;bottom=1;right=1;pointerEvents=1;fontSize=12;fontColor=#000000;" vertex="1" parent="D1-AjjTe4C6SUy-_Dg9c-153">
          <mxGeometry x="183" width="182" height="40" as="geometry">
            <mxRectangle width="182" height="40" as="alternateBounds" />
          </mxGeometry>
        </mxCell>
        <mxCell id="D1-AjjTe4C6SUy-_Dg9c-156" value="ATTRIBUTI" style="shape=partialRectangle;html=1;whiteSpace=wrap;connectable=0;strokeColor=#FFFFFF;overflow=hidden;fillColor=#dae8fc;top=1;left=1;bottom=1;right=1;pointerEvents=1;fontSize=12;fontColor=#000000;" vertex="1" parent="D1-AjjTe4C6SUy-_Dg9c-153">
          <mxGeometry x="365" width="183" height="40" as="geometry">
            <mxRectangle width="183" height="40" as="alternateBounds" />
          </mxGeometry>
        </mxCell>
        <mxCell id="D1-AjjTe4C6SUy-_Dg9c-157" value="INDEX" style="shape=partialRectangle;html=1;whiteSpace=wrap;connectable=0;strokeColor=#FFFFFF;overflow=hidden;fillColor=#dae8fc;top=1;left=1;bottom=1;right=1;pointerEvents=1;fontSize=12;fontColor=#000000;" vertex="1" parent="D1-AjjTe4C6SUy-_Dg9c-153">
          <mxGeometry x="548" width="92" height="40" as="geometry">
            <mxRectangle width="92" height="40" as="alternateBounds" />
          </mxGeometry>
        </mxCell>
        <mxCell id="D1-AjjTe4C6SUy-_Dg9c-158" value="" style="shape=tableRow;horizontal=0;startSize=0;swimlaneHead=0;swimlaneBody=0;strokeColor=inherit;top=0;left=0;bottom=0;right=0;collapsible=0;dropTarget=0;fillColor=none;points=[[0,0.5],[1,0.5]];portConstraint=eastwest;fontSize=12;" vertex="1" parent="D1-AjjTe4C6SUy-_Dg9c-152">
          <mxGeometry y="70" width="640" height="40" as="geometry" />
        </mxCell>
        <mxCell id="D1-AjjTe4C6SUy-_Dg9c-159" value="id" style="shape=partialRectangle;html=1;whiteSpace=wrap;connectable=0;strokeColor=inherit;overflow=hidden;fillColor=none;top=0;left=0;bottom=0;right=0;pointerEvents=1;fontSize=12;" vertex="1" parent="D1-AjjTe4C6SUy-_Dg9c-158">
          <mxGeometry width="183" height="40" as="geometry">
            <mxRectangle width="183" height="40" as="alternateBounds" />
          </mxGeometry>
        </mxCell>
        <mxCell id="D1-AjjTe4C6SUy-_Dg9c-160" value="TINYINT UNSIGNED" style="shape=partialRectangle;html=1;whiteSpace=wrap;connectable=0;strokeColor=inherit;overflow=hidden;fillColor=none;top=0;left=0;bottom=0;right=0;pointerEvents=1;fontSize=12;" vertex="1" parent="D1-AjjTe4C6SUy-_Dg9c-158">
          <mxGeometry x="183" width="182" height="40" as="geometry">
            <mxRectangle width="182" height="40" as="alternateBounds" />
          </mxGeometry>
        </mxCell>
        <mxCell id="D1-AjjTe4C6SUy-_Dg9c-161" value="AUTO_INCREMENT, UNIQUE" style="shape=partialRectangle;html=1;whiteSpace=wrap;connectable=0;strokeColor=inherit;overflow=hidden;fillColor=none;top=0;left=0;bottom=0;right=0;pointerEvents=1;fontSize=12;" vertex="1" parent="D1-AjjTe4C6SUy-_Dg9c-158">
          <mxGeometry x="365" width="183" height="40" as="geometry">
            <mxRectangle width="183" height="40" as="alternateBounds" />
          </mxGeometry>
        </mxCell>
        <mxCell id="D1-AjjTe4C6SUy-_Dg9c-162" value="PK" style="shape=partialRectangle;html=1;whiteSpace=wrap;connectable=0;strokeColor=inherit;overflow=hidden;fillColor=none;top=0;left=0;bottom=0;right=0;pointerEvents=1;fontSize=12;" vertex="1" parent="D1-AjjTe4C6SUy-_Dg9c-158">
          <mxGeometry x="548" width="92" height="40" as="geometry">
            <mxRectangle width="92" height="40" as="alternateBounds" />
          </mxGeometry>
        </mxCell>
        <mxCell id="D1-AjjTe4C6SUy-_Dg9c-163" value="" style="shape=tableRow;horizontal=0;startSize=0;swimlaneHead=0;swimlaneBody=0;strokeColor=inherit;top=0;left=0;bottom=0;right=0;collapsible=0;dropTarget=0;fillColor=none;points=[[0,0.5],[1,0.5]];portConstraint=eastwest;fontSize=12;" vertex="1" parent="D1-AjjTe4C6SUy-_Dg9c-152">
          <mxGeometry y="110" width="640" height="40" as="geometry" />
        </mxCell>
        <mxCell id="D1-AjjTe4C6SUy-_Dg9c-164" value="degree_course_name" style="shape=partialRectangle;html=1;whiteSpace=wrap;connectable=0;strokeColor=inherit;overflow=hidden;fillColor=none;top=0;left=0;bottom=0;right=0;pointerEvents=1;fontSize=12;" vertex="1" parent="D1-AjjTe4C6SUy-_Dg9c-163">
          <mxGeometry width="183" height="40" as="geometry">
            <mxRectangle width="183" height="40" as="alternateBounds" />
          </mxGeometry>
        </mxCell>
        <mxCell id="D1-AjjTe4C6SUy-_Dg9c-165" value="VARCHAR(50)" style="shape=partialRectangle;html=1;whiteSpace=wrap;connectable=0;strokeColor=inherit;overflow=hidden;fillColor=none;top=0;left=0;bottom=0;right=0;pointerEvents=1;fontSize=12;" vertex="1" parent="D1-AjjTe4C6SUy-_Dg9c-163">
          <mxGeometry x="183" width="182" height="40" as="geometry">
            <mxRectangle width="182" height="40" as="alternateBounds" />
          </mxGeometry>
        </mxCell>
        <mxCell id="D1-AjjTe4C6SUy-_Dg9c-166" value="NOTNULL" style="shape=partialRectangle;html=1;whiteSpace=wrap;connectable=0;strokeColor=inherit;overflow=hidden;fillColor=none;top=0;left=0;bottom=0;right=0;pointerEvents=1;fontSize=12;" vertex="1" parent="D1-AjjTe4C6SUy-_Dg9c-163">
          <mxGeometry x="365" width="183" height="40" as="geometry">
            <mxRectangle width="183" height="40" as="alternateBounds" />
          </mxGeometry>
        </mxCell>
        <mxCell id="D1-AjjTe4C6SUy-_Dg9c-167" value="index" style="shape=partialRectangle;html=1;whiteSpace=wrap;connectable=0;strokeColor=inherit;overflow=hidden;fillColor=none;top=0;left=0;bottom=0;right=0;pointerEvents=1;fontSize=12;" vertex="1" parent="D1-AjjTe4C6SUy-_Dg9c-163">
          <mxGeometry x="548" width="92" height="40" as="geometry">
            <mxRectangle width="92" height="40" as="alternateBounds" />
          </mxGeometry>
        </mxCell>
        <mxCell id="D1-AjjTe4C6SUy-_Dg9c-168" style="shape=tableRow;horizontal=0;startSize=0;swimlaneHead=0;swimlaneBody=0;strokeColor=inherit;top=0;left=0;bottom=0;right=0;collapsible=0;dropTarget=0;fillColor=none;points=[[0,0.5],[1,0.5]];portConstraint=eastwest;fontSize=12;" vertex="1" parent="D1-AjjTe4C6SUy-_Dg9c-152">
          <mxGeometry y="150" width="640" height="40" as="geometry" />
        </mxCell>
        <mxCell id="D1-AjjTe4C6SUy-_Dg9c-169" value="department_id" style="shape=partialRectangle;html=1;whiteSpace=wrap;connectable=0;strokeColor=inherit;overflow=hidden;fillColor=none;top=0;left=0;bottom=0;right=0;pointerEvents=1;fontSize=12;" vertex="1" parent="D1-AjjTe4C6SUy-_Dg9c-168">
          <mxGeometry width="183" height="40" as="geometry">
            <mxRectangle width="183" height="40" as="alternateBounds" />
          </mxGeometry>
        </mxCell>
        <mxCell id="D1-AjjTe4C6SUy-_Dg9c-170" value="" style="shape=partialRectangle;html=1;whiteSpace=wrap;connectable=0;strokeColor=inherit;overflow=hidden;fillColor=none;top=0;left=0;bottom=0;right=0;pointerEvents=1;fontSize=12;" vertex="1" parent="D1-AjjTe4C6SUy-_Dg9c-168">
          <mxGeometry x="183" width="182" height="40" as="geometry">
            <mxRectangle width="182" height="40" as="alternateBounds" />
          </mxGeometry>
        </mxCell>
        <mxCell id="D1-AjjTe4C6SUy-_Dg9c-171" value="UNIQUE" style="shape=partialRectangle;html=1;whiteSpace=wrap;connectable=0;strokeColor=inherit;overflow=hidden;fillColor=none;top=0;left=0;bottom=0;right=0;pointerEvents=1;fontSize=12;" vertex="1" parent="D1-AjjTe4C6SUy-_Dg9c-168">
          <mxGeometry x="365" width="183" height="40" as="geometry">
            <mxRectangle width="183" height="40" as="alternateBounds" />
          </mxGeometry>
        </mxCell>
        <mxCell id="D1-AjjTe4C6SUy-_Dg9c-172" value="FK" style="shape=partialRectangle;html=1;whiteSpace=wrap;connectable=0;strokeColor=inherit;overflow=hidden;fillColor=none;top=0;left=0;bottom=0;right=0;pointerEvents=1;fontSize=12;" vertex="1" parent="D1-AjjTe4C6SUy-_Dg9c-168">
          <mxGeometry x="548" width="92" height="40" as="geometry">
            <mxRectangle width="92" height="40" as="alternateBounds" />
          </mxGeometry>
        </mxCell>
        <mxCell id="D1-AjjTe4C6SUy-_Dg9c-219" value="courses" style="shape=table;startSize=30;container=1;collapsible=1;childLayout=tableLayout;fixedRows=1;rowLines=0;fontStyle=1;align=center;resizeLast=1;html=1;" vertex="1" parent="1">
          <mxGeometry x="30" y="400" width="180" height="120" as="geometry" />
        </mxCell>
        <mxCell id="D1-AjjTe4C6SUy-_Dg9c-220" value="" style="shape=tableRow;horizontal=0;startSize=0;swimlaneHead=0;swimlaneBody=0;fillColor=none;collapsible=0;dropTarget=0;points=[[0,0.5],[1,0.5]];portConstraint=eastwest;top=0;left=0;right=0;bottom=1;" vertex="1" parent="D1-AjjTe4C6SUy-_Dg9c-219">
          <mxGeometry y="30" width="180" height="30" as="geometry" />
        </mxCell>
        <mxCell id="D1-AjjTe4C6SUy-_Dg9c-221" value="PK" style="shape=partialRectangle;connectable=0;fillColor=none;top=0;left=0;bottom=0;right=0;fontStyle=1;overflow=hidden;whiteSpace=wrap;html=1;" vertex="1" parent="D1-AjjTe4C6SUy-_Dg9c-220">
          <mxGeometry width="30" height="30" as="geometry">
            <mxRectangle width="30" height="30" as="alternateBounds" />
          </mxGeometry>
        </mxCell>
        <mxCell id="D1-AjjTe4C6SUy-_Dg9c-222" value="id" style="shape=partialRectangle;connectable=0;fillColor=none;top=0;left=0;bottom=0;right=0;align=left;spacingLeft=6;fontStyle=5;overflow=hidden;whiteSpace=wrap;html=1;" vertex="1" parent="D1-AjjTe4C6SUy-_Dg9c-220">
          <mxGeometry x="30" width="150" height="30" as="geometry">
            <mxRectangle width="150" height="30" as="alternateBounds" />
          </mxGeometry>
        </mxCell>
        <mxCell id="D1-AjjTe4C6SUy-_Dg9c-223" value="" style="shape=tableRow;horizontal=0;startSize=0;swimlaneHead=0;swimlaneBody=0;fillColor=none;collapsible=0;dropTarget=0;points=[[0,0.5],[1,0.5]];portConstraint=eastwest;top=0;left=0;right=0;bottom=0;" vertex="1" parent="D1-AjjTe4C6SUy-_Dg9c-219">
          <mxGeometry y="60" width="180" height="30" as="geometry" />
        </mxCell>
        <mxCell id="D1-AjjTe4C6SUy-_Dg9c-224" value="" style="shape=partialRectangle;connectable=0;fillColor=none;top=0;left=0;bottom=0;right=0;editable=1;overflow=hidden;whiteSpace=wrap;html=1;" vertex="1" parent="D1-AjjTe4C6SUy-_Dg9c-223">
          <mxGeometry width="30" height="30" as="geometry">
            <mxRectangle width="30" height="30" as="alternateBounds" />
          </mxGeometry>
        </mxCell>
        <mxCell id="D1-AjjTe4C6SUy-_Dg9c-225" value="course_name" style="shape=partialRectangle;connectable=0;fillColor=none;top=0;left=0;bottom=0;right=0;align=left;spacingLeft=6;overflow=hidden;whiteSpace=wrap;html=1;" vertex="1" parent="D1-AjjTe4C6SUy-_Dg9c-223">
          <mxGeometry x="30" width="150" height="30" as="geometry">
            <mxRectangle width="150" height="30" as="alternateBounds" />
          </mxGeometry>
        </mxCell>
        <mxCell id="D1-AjjTe4C6SUy-_Dg9c-244" style="shape=tableRow;horizontal=0;startSize=0;swimlaneHead=0;swimlaneBody=0;fillColor=none;collapsible=0;dropTarget=0;points=[[0,0.5],[1,0.5]];portConstraint=eastwest;top=0;left=0;right=0;bottom=0;" vertex="1" parent="D1-AjjTe4C6SUy-_Dg9c-219">
          <mxGeometry y="90" width="180" height="30" as="geometry" />
        </mxCell>
        <mxCell id="D1-AjjTe4C6SUy-_Dg9c-245" value="FK" style="shape=partialRectangle;connectable=0;fillColor=none;top=0;left=0;bottom=0;right=0;editable=1;overflow=hidden;whiteSpace=wrap;html=1;" vertex="1" parent="D1-AjjTe4C6SUy-_Dg9c-244">
          <mxGeometry width="30" height="30" as="geometry">
            <mxRectangle width="30" height="30" as="alternateBounds" />
          </mxGeometry>
        </mxCell>
        <mxCell id="D1-AjjTe4C6SUy-_Dg9c-246" value="" style="shape=partialRectangle;connectable=0;fillColor=none;top=0;left=0;bottom=0;right=0;align=left;spacingLeft=6;overflow=hidden;whiteSpace=wrap;html=1;" vertex="1" parent="D1-AjjTe4C6SUy-_Dg9c-244">
          <mxGeometry x="30" width="150" height="30" as="geometry">
            <mxRectangle width="150" height="30" as="alternateBounds" />
          </mxGeometry>
        </mxCell>
        <mxCell id="D1-AjjTe4C6SUy-_Dg9c-353" style="edgeStyle=orthogonalEdgeStyle;rounded=0;orthogonalLoop=1;jettySize=auto;html=1;entryX=0;entryY=0.5;entryDx=0;entryDy=0;" edge="1" parent="1" source="D1-AjjTe4C6SUy-_Dg9c-247" target="D1-AjjTe4C6SUy-_Dg9c-333">
          <mxGeometry relative="1" as="geometry">
            <Array as="points">
              <mxPoint x="-65" y="360" />
              <mxPoint x="-370" y="360" />
              <mxPoint x="-370" y="445" />
            </Array>
          </mxGeometry>
        </mxCell>
        <mxCell id="D1-AjjTe4C6SUy-_Dg9c-354" style="edgeStyle=orthogonalEdgeStyle;rounded=0;orthogonalLoop=1;jettySize=auto;html=1;entryX=0;entryY=0.5;entryDx=0;entryDy=0;" edge="1" parent="1" source="D1-AjjTe4C6SUy-_Dg9c-247" target="D1-AjjTe4C6SUy-_Dg9c-244">
          <mxGeometry relative="1" as="geometry" />
        </mxCell>
        <mxCell id="D1-AjjTe4C6SUy-_Dg9c-247" value="" style="html=1;whiteSpace=wrap;aspect=fixed;shape=isoRectangle;" vertex="1" parent="1">
          <mxGeometry x="-100" y="424" width="70" height="42" as="geometry" />
        </mxCell>
        <mxCell id="D1-AjjTe4C6SUy-_Dg9c-260" value="departments" style="shape=table;startSize=30;container=1;collapsible=1;childLayout=tableLayout;fixedRows=1;rowLines=0;fontStyle=1;align=center;resizeLast=1;html=1;" vertex="1" parent="1">
          <mxGeometry x="-730" y="400" width="180" height="90" as="geometry" />
        </mxCell>
        <mxCell id="D1-AjjTe4C6SUy-_Dg9c-261" value="" style="shape=tableRow;horizontal=0;startSize=0;swimlaneHead=0;swimlaneBody=0;fillColor=none;collapsible=0;dropTarget=0;points=[[0,0.5],[1,0.5]];portConstraint=eastwest;top=0;left=0;right=0;bottom=1;" vertex="1" parent="D1-AjjTe4C6SUy-_Dg9c-260">
          <mxGeometry y="30" width="180" height="30" as="geometry" />
        </mxCell>
        <mxCell id="D1-AjjTe4C6SUy-_Dg9c-262" value="PK" style="shape=partialRectangle;connectable=0;fillColor=none;top=0;left=0;bottom=0;right=0;fontStyle=1;overflow=hidden;whiteSpace=wrap;html=1;" vertex="1" parent="D1-AjjTe4C6SUy-_Dg9c-261">
          <mxGeometry width="30" height="30" as="geometry">
            <mxRectangle width="30" height="30" as="alternateBounds" />
          </mxGeometry>
        </mxCell>
        <mxCell id="D1-AjjTe4C6SUy-_Dg9c-263" value="id" style="shape=partialRectangle;connectable=0;fillColor=none;top=0;left=0;bottom=0;right=0;align=left;spacingLeft=6;fontStyle=5;overflow=hidden;whiteSpace=wrap;html=1;" vertex="1" parent="D1-AjjTe4C6SUy-_Dg9c-261">
          <mxGeometry x="30" width="150" height="30" as="geometry">
            <mxRectangle width="150" height="30" as="alternateBounds" />
          </mxGeometry>
        </mxCell>
        <mxCell id="D1-AjjTe4C6SUy-_Dg9c-264" value="" style="shape=tableRow;horizontal=0;startSize=0;swimlaneHead=0;swimlaneBody=0;fillColor=none;collapsible=0;dropTarget=0;points=[[0,0.5],[1,0.5]];portConstraint=eastwest;top=0;left=0;right=0;bottom=0;" vertex="1" parent="D1-AjjTe4C6SUy-_Dg9c-260">
          <mxGeometry y="60" width="180" height="30" as="geometry" />
        </mxCell>
        <mxCell id="D1-AjjTe4C6SUy-_Dg9c-265" value="" style="shape=partialRectangle;connectable=0;fillColor=none;top=0;left=0;bottom=0;right=0;editable=1;overflow=hidden;whiteSpace=wrap;html=1;" vertex="1" parent="D1-AjjTe4C6SUy-_Dg9c-264">
          <mxGeometry width="30" height="30" as="geometry">
            <mxRectangle width="30" height="30" as="alternateBounds" />
          </mxGeometry>
        </mxCell>
        <mxCell id="D1-AjjTe4C6SUy-_Dg9c-266" value="department_name" style="shape=partialRectangle;connectable=0;fillColor=none;top=0;left=0;bottom=0;right=0;align=left;spacingLeft=6;overflow=hidden;whiteSpace=wrap;html=1;" vertex="1" parent="D1-AjjTe4C6SUy-_Dg9c-264">
          <mxGeometry x="30" width="150" height="30" as="geometry">
            <mxRectangle width="150" height="30" as="alternateBounds" />
          </mxGeometry>
        </mxCell>
        <mxCell id="D1-AjjTe4C6SUy-_Dg9c-339" style="edgeStyle=orthogonalEdgeStyle;rounded=0;orthogonalLoop=1;jettySize=auto;html=1;entryX=0;entryY=0.5;entryDx=0;entryDy=0;" edge="1" parent="1" source="D1-AjjTe4C6SUy-_Dg9c-271" target="D1-AjjTe4C6SUy-_Dg9c-261">
          <mxGeometry relative="1" as="geometry">
            <Array as="points">
              <mxPoint x="-510" y="445" />
              <mxPoint x="-510" y="360" />
              <mxPoint x="-790" y="360" />
              <mxPoint x="-790" y="445" />
            </Array>
          </mxGeometry>
        </mxCell>
        <mxCell id="D1-AjjTe4C6SUy-_Dg9c-345" style="edgeStyle=orthogonalEdgeStyle;rounded=0;orthogonalLoop=1;jettySize=auto;html=1;" edge="1" parent="1" source="D1-AjjTe4C6SUy-_Dg9c-271" target="D1-AjjTe4C6SUy-_Dg9c-340">
          <mxGeometry relative="1" as="geometry" />
        </mxCell>
        <mxCell id="D1-AjjTe4C6SUy-_Dg9c-271" value="" style="html=1;whiteSpace=wrap;aspect=fixed;shape=isoRectangle;" vertex="1" parent="1">
          <mxGeometry x="-470" y="424" width="70" height="42" as="geometry" />
        </mxCell>
        <mxCell id="D1-AjjTe4C6SUy-_Dg9c-280" value="TINYINT UNSIGNED" style="shape=partialRectangle;html=1;whiteSpace=wrap;connectable=0;strokeColor=inherit;overflow=hidden;fillColor=none;top=0;left=0;bottom=0;right=0;pointerEvents=1;fontSize=12;" vertex="1" parent="1">
          <mxGeometry x="53" y="-130" width="182" height="40" as="geometry">
            <mxRectangle width="182" height="40" as="alternateBounds" />
          </mxGeometry>
        </mxCell>
        <mxCell id="D1-AjjTe4C6SUy-_Dg9c-281" value="departments" style="shape=table;startSize=30;container=1;collapsible=0;childLayout=tableLayout;strokeColor=default;fontSize=12;" vertex="1" parent="1">
          <mxGeometry x="-130" y="-40" width="640" height="150" as="geometry" />
        </mxCell>
        <mxCell id="D1-AjjTe4C6SUy-_Dg9c-282" value="" style="shape=tableRow;horizontal=0;startSize=0;swimlaneHead=0;swimlaneBody=0;strokeColor=inherit;top=0;left=0;bottom=0;right=0;collapsible=0;dropTarget=0;fillColor=none;points=[[0,0.5],[1,0.5]];portConstraint=eastwest;fontSize=12;" vertex="1" parent="D1-AjjTe4C6SUy-_Dg9c-281">
          <mxGeometry y="30" width="640" height="40" as="geometry" />
        </mxCell>
        <mxCell id="D1-AjjTe4C6SUy-_Dg9c-283" value="NOME CAMPO" style="shape=partialRectangle;html=1;whiteSpace=wrap;connectable=0;strokeColor=#FFFFFF;overflow=hidden;fillColor=#dae8fc;top=1;left=1;bottom=1;right=1;pointerEvents=1;fontSize=12;fontColor=#000000;" vertex="1" parent="D1-AjjTe4C6SUy-_Dg9c-282">
          <mxGeometry width="183" height="40" as="geometry">
            <mxRectangle width="183" height="40" as="alternateBounds" />
          </mxGeometry>
        </mxCell>
        <mxCell id="D1-AjjTe4C6SUy-_Dg9c-284" value="TIPO DI DATO" style="shape=partialRectangle;html=1;whiteSpace=wrap;connectable=0;strokeColor=#FFFFFF;overflow=hidden;fillColor=#dae8fc;top=1;left=1;bottom=1;right=1;pointerEvents=1;fontSize=12;fontColor=#000000;" vertex="1" parent="D1-AjjTe4C6SUy-_Dg9c-282">
          <mxGeometry x="183" width="182" height="40" as="geometry">
            <mxRectangle width="182" height="40" as="alternateBounds" />
          </mxGeometry>
        </mxCell>
        <mxCell id="D1-AjjTe4C6SUy-_Dg9c-285" value="ATTRIBUTI" style="shape=partialRectangle;html=1;whiteSpace=wrap;connectable=0;strokeColor=#FFFFFF;overflow=hidden;fillColor=#dae8fc;top=1;left=1;bottom=1;right=1;pointerEvents=1;fontSize=12;fontColor=#000000;" vertex="1" parent="D1-AjjTe4C6SUy-_Dg9c-282">
          <mxGeometry x="365" width="183" height="40" as="geometry">
            <mxRectangle width="183" height="40" as="alternateBounds" />
          </mxGeometry>
        </mxCell>
        <mxCell id="D1-AjjTe4C6SUy-_Dg9c-286" value="INDEX" style="shape=partialRectangle;html=1;whiteSpace=wrap;connectable=0;strokeColor=#FFFFFF;overflow=hidden;fillColor=#dae8fc;top=1;left=1;bottom=1;right=1;pointerEvents=1;fontSize=12;fontColor=#000000;" vertex="1" parent="D1-AjjTe4C6SUy-_Dg9c-282">
          <mxGeometry x="548" width="92" height="40" as="geometry">
            <mxRectangle width="92" height="40" as="alternateBounds" />
          </mxGeometry>
        </mxCell>
        <mxCell id="D1-AjjTe4C6SUy-_Dg9c-287" value="" style="shape=tableRow;horizontal=0;startSize=0;swimlaneHead=0;swimlaneBody=0;strokeColor=inherit;top=0;left=0;bottom=0;right=0;collapsible=0;dropTarget=0;fillColor=none;points=[[0,0.5],[1,0.5]];portConstraint=eastwest;fontSize=12;" vertex="1" parent="D1-AjjTe4C6SUy-_Dg9c-281">
          <mxGeometry y="70" width="640" height="40" as="geometry" />
        </mxCell>
        <mxCell id="D1-AjjTe4C6SUy-_Dg9c-288" value="id" style="shape=partialRectangle;html=1;whiteSpace=wrap;connectable=0;strokeColor=inherit;overflow=hidden;fillColor=none;top=0;left=0;bottom=0;right=0;pointerEvents=1;fontSize=12;" vertex="1" parent="D1-AjjTe4C6SUy-_Dg9c-287">
          <mxGeometry width="183" height="40" as="geometry">
            <mxRectangle width="183" height="40" as="alternateBounds" />
          </mxGeometry>
        </mxCell>
        <mxCell id="D1-AjjTe4C6SUy-_Dg9c-289" value="TINYINT UNSIGNED" style="shape=partialRectangle;html=1;whiteSpace=wrap;connectable=0;strokeColor=inherit;overflow=hidden;fillColor=none;top=0;left=0;bottom=0;right=0;pointerEvents=1;fontSize=12;" vertex="1" parent="D1-AjjTe4C6SUy-_Dg9c-287">
          <mxGeometry x="183" width="182" height="40" as="geometry">
            <mxRectangle width="182" height="40" as="alternateBounds" />
          </mxGeometry>
        </mxCell>
        <mxCell id="D1-AjjTe4C6SUy-_Dg9c-290" value="AUTO_INCREMENT, UNIQUE" style="shape=partialRectangle;html=1;whiteSpace=wrap;connectable=0;strokeColor=inherit;overflow=hidden;fillColor=none;top=0;left=0;bottom=0;right=0;pointerEvents=1;fontSize=12;" vertex="1" parent="D1-AjjTe4C6SUy-_Dg9c-287">
          <mxGeometry x="365" width="183" height="40" as="geometry">
            <mxRectangle width="183" height="40" as="alternateBounds" />
          </mxGeometry>
        </mxCell>
        <mxCell id="D1-AjjTe4C6SUy-_Dg9c-291" value="PK" style="shape=partialRectangle;html=1;whiteSpace=wrap;connectable=0;strokeColor=inherit;overflow=hidden;fillColor=none;top=0;left=0;bottom=0;right=0;pointerEvents=1;fontSize=12;" vertex="1" parent="D1-AjjTe4C6SUy-_Dg9c-287">
          <mxGeometry x="548" width="92" height="40" as="geometry">
            <mxRectangle width="92" height="40" as="alternateBounds" />
          </mxGeometry>
        </mxCell>
        <mxCell id="D1-AjjTe4C6SUy-_Dg9c-292" value="" style="shape=tableRow;horizontal=0;startSize=0;swimlaneHead=0;swimlaneBody=0;strokeColor=inherit;top=0;left=0;bottom=0;right=0;collapsible=0;dropTarget=0;fillColor=none;points=[[0,0.5],[1,0.5]];portConstraint=eastwest;fontSize=12;" vertex="1" parent="D1-AjjTe4C6SUy-_Dg9c-281">
          <mxGeometry y="110" width="640" height="40" as="geometry" />
        </mxCell>
        <mxCell id="D1-AjjTe4C6SUy-_Dg9c-293" value="department_name" style="shape=partialRectangle;html=1;whiteSpace=wrap;connectable=0;strokeColor=inherit;overflow=hidden;fillColor=none;top=0;left=0;bottom=0;right=0;pointerEvents=1;fontSize=12;" vertex="1" parent="D1-AjjTe4C6SUy-_Dg9c-292">
          <mxGeometry width="183" height="40" as="geometry">
            <mxRectangle width="183" height="40" as="alternateBounds" />
          </mxGeometry>
        </mxCell>
        <mxCell id="D1-AjjTe4C6SUy-_Dg9c-294" value="VARCHAR(50)" style="shape=partialRectangle;html=1;whiteSpace=wrap;connectable=0;strokeColor=inherit;overflow=hidden;fillColor=none;top=0;left=0;bottom=0;right=0;pointerEvents=1;fontSize=12;" vertex="1" parent="D1-AjjTe4C6SUy-_Dg9c-292">
          <mxGeometry x="183" width="182" height="40" as="geometry">
            <mxRectangle width="182" height="40" as="alternateBounds" />
          </mxGeometry>
        </mxCell>
        <mxCell id="D1-AjjTe4C6SUy-_Dg9c-295" value="NOTNULL" style="shape=partialRectangle;html=1;whiteSpace=wrap;connectable=0;strokeColor=inherit;overflow=hidden;fillColor=none;top=0;left=0;bottom=0;right=0;pointerEvents=1;fontSize=12;" vertex="1" parent="D1-AjjTe4C6SUy-_Dg9c-292">
          <mxGeometry x="365" width="183" height="40" as="geometry">
            <mxRectangle width="183" height="40" as="alternateBounds" />
          </mxGeometry>
        </mxCell>
        <mxCell id="D1-AjjTe4C6SUy-_Dg9c-296" value="index" style="shape=partialRectangle;html=1;whiteSpace=wrap;connectable=0;strokeColor=inherit;overflow=hidden;fillColor=none;top=0;left=0;bottom=0;right=0;pointerEvents=1;fontSize=12;" vertex="1" parent="D1-AjjTe4C6SUy-_Dg9c-292">
          <mxGeometry x="548" width="92" height="40" as="geometry">
            <mxRectangle width="92" height="40" as="alternateBounds" />
          </mxGeometry>
        </mxCell>
        <mxCell id="D1-AjjTe4C6SUy-_Dg9c-302" value="TINYINT UNSIGNED" style="shape=partialRectangle;html=1;whiteSpace=wrap;connectable=0;strokeColor=inherit;overflow=hidden;fillColor=none;top=0;left=0;bottom=0;right=0;pointerEvents=1;fontSize=12;" vertex="1" parent="1">
          <mxGeometry x="63" y="150" width="182" height="40" as="geometry">
            <mxRectangle width="182" height="40" as="alternateBounds" />
          </mxGeometry>
        </mxCell>
        <mxCell id="D1-AjjTe4C6SUy-_Dg9c-303" value="department_id" style="shape=partialRectangle;html=1;whiteSpace=wrap;connectable=0;strokeColor=inherit;overflow=hidden;fillColor=none;top=0;left=0;bottom=0;right=0;pointerEvents=1;fontSize=12;" vertex="1" parent="1">
          <mxGeometry x="-800" y="70" width="183" height="40" as="geometry">
            <mxRectangle width="183" height="40" as="alternateBounds" />
          </mxGeometry>
        </mxCell>
        <mxCell id="D1-AjjTe4C6SUy-_Dg9c-306" value="courses" style="shape=table;startSize=30;container=1;collapsible=0;childLayout=tableLayout;strokeColor=default;fontSize=12;" vertex="1" parent="1">
          <mxGeometry x="540" y="-280" width="640" height="190" as="geometry" />
        </mxCell>
        <mxCell id="D1-AjjTe4C6SUy-_Dg9c-307" value="" style="shape=tableRow;horizontal=0;startSize=0;swimlaneHead=0;swimlaneBody=0;strokeColor=inherit;top=0;left=0;bottom=0;right=0;collapsible=0;dropTarget=0;fillColor=none;points=[[0,0.5],[1,0.5]];portConstraint=eastwest;fontSize=12;" vertex="1" parent="D1-AjjTe4C6SUy-_Dg9c-306">
          <mxGeometry y="30" width="640" height="40" as="geometry" />
        </mxCell>
        <mxCell id="D1-AjjTe4C6SUy-_Dg9c-308" value="NOME CAMPO" style="shape=partialRectangle;html=1;whiteSpace=wrap;connectable=0;strokeColor=#FFFFFF;overflow=hidden;fillColor=#dae8fc;top=1;left=1;bottom=1;right=1;pointerEvents=1;fontSize=12;fontColor=#000000;" vertex="1" parent="D1-AjjTe4C6SUy-_Dg9c-307">
          <mxGeometry width="183" height="40" as="geometry">
            <mxRectangle width="183" height="40" as="alternateBounds" />
          </mxGeometry>
        </mxCell>
        <mxCell id="D1-AjjTe4C6SUy-_Dg9c-309" value="TIPO DI DATO" style="shape=partialRectangle;html=1;whiteSpace=wrap;connectable=0;strokeColor=#FFFFFF;overflow=hidden;fillColor=#dae8fc;top=1;left=1;bottom=1;right=1;pointerEvents=1;fontSize=12;fontColor=#000000;" vertex="1" parent="D1-AjjTe4C6SUy-_Dg9c-307">
          <mxGeometry x="183" width="182" height="40" as="geometry">
            <mxRectangle width="182" height="40" as="alternateBounds" />
          </mxGeometry>
        </mxCell>
        <mxCell id="D1-AjjTe4C6SUy-_Dg9c-310" value="ATTRIBUTI" style="shape=partialRectangle;html=1;whiteSpace=wrap;connectable=0;strokeColor=#FFFFFF;overflow=hidden;fillColor=#dae8fc;top=1;left=1;bottom=1;right=1;pointerEvents=1;fontSize=12;fontColor=#000000;" vertex="1" parent="D1-AjjTe4C6SUy-_Dg9c-307">
          <mxGeometry x="365" width="183" height="40" as="geometry">
            <mxRectangle width="183" height="40" as="alternateBounds" />
          </mxGeometry>
        </mxCell>
        <mxCell id="D1-AjjTe4C6SUy-_Dg9c-311" value="INDEX" style="shape=partialRectangle;html=1;whiteSpace=wrap;connectable=0;strokeColor=#FFFFFF;overflow=hidden;fillColor=#dae8fc;top=1;left=1;bottom=1;right=1;pointerEvents=1;fontSize=12;fontColor=#000000;" vertex="1" parent="D1-AjjTe4C6SUy-_Dg9c-307">
          <mxGeometry x="548" width="92" height="40" as="geometry">
            <mxRectangle width="92" height="40" as="alternateBounds" />
          </mxGeometry>
        </mxCell>
        <mxCell id="D1-AjjTe4C6SUy-_Dg9c-312" value="" style="shape=tableRow;horizontal=0;startSize=0;swimlaneHead=0;swimlaneBody=0;strokeColor=inherit;top=0;left=0;bottom=0;right=0;collapsible=0;dropTarget=0;fillColor=none;points=[[0,0.5],[1,0.5]];portConstraint=eastwest;fontSize=12;" vertex="1" parent="D1-AjjTe4C6SUy-_Dg9c-306">
          <mxGeometry y="70" width="640" height="40" as="geometry" />
        </mxCell>
        <mxCell id="D1-AjjTe4C6SUy-_Dg9c-313" value="id" style="shape=partialRectangle;html=1;whiteSpace=wrap;connectable=0;strokeColor=inherit;overflow=hidden;fillColor=none;top=0;left=0;bottom=0;right=0;pointerEvents=1;fontSize=12;" vertex="1" parent="D1-AjjTe4C6SUy-_Dg9c-312">
          <mxGeometry width="183" height="40" as="geometry">
            <mxRectangle width="183" height="40" as="alternateBounds" />
          </mxGeometry>
        </mxCell>
        <mxCell id="D1-AjjTe4C6SUy-_Dg9c-314" value="TINYINT UNSIGNED" style="shape=partialRectangle;html=1;whiteSpace=wrap;connectable=0;strokeColor=inherit;overflow=hidden;fillColor=none;top=0;left=0;bottom=0;right=0;pointerEvents=1;fontSize=12;" vertex="1" parent="D1-AjjTe4C6SUy-_Dg9c-312">
          <mxGeometry x="183" width="182" height="40" as="geometry">
            <mxRectangle width="182" height="40" as="alternateBounds" />
          </mxGeometry>
        </mxCell>
        <mxCell id="D1-AjjTe4C6SUy-_Dg9c-315" value="AUTO_INCREMENT, UNIQUE" style="shape=partialRectangle;html=1;whiteSpace=wrap;connectable=0;strokeColor=inherit;overflow=hidden;fillColor=none;top=0;left=0;bottom=0;right=0;pointerEvents=1;fontSize=12;" vertex="1" parent="D1-AjjTe4C6SUy-_Dg9c-312">
          <mxGeometry x="365" width="183" height="40" as="geometry">
            <mxRectangle width="183" height="40" as="alternateBounds" />
          </mxGeometry>
        </mxCell>
        <mxCell id="D1-AjjTe4C6SUy-_Dg9c-316" value="PK" style="shape=partialRectangle;html=1;whiteSpace=wrap;connectable=0;strokeColor=inherit;overflow=hidden;fillColor=none;top=0;left=0;bottom=0;right=0;pointerEvents=1;fontSize=12;" vertex="1" parent="D1-AjjTe4C6SUy-_Dg9c-312">
          <mxGeometry x="548" width="92" height="40" as="geometry">
            <mxRectangle width="92" height="40" as="alternateBounds" />
          </mxGeometry>
        </mxCell>
        <mxCell id="D1-AjjTe4C6SUy-_Dg9c-317" value="" style="shape=tableRow;horizontal=0;startSize=0;swimlaneHead=0;swimlaneBody=0;strokeColor=inherit;top=0;left=0;bottom=0;right=0;collapsible=0;dropTarget=0;fillColor=none;points=[[0,0.5],[1,0.5]];portConstraint=eastwest;fontSize=12;" vertex="1" parent="D1-AjjTe4C6SUy-_Dg9c-306">
          <mxGeometry y="110" width="640" height="40" as="geometry" />
        </mxCell>
        <mxCell id="D1-AjjTe4C6SUy-_Dg9c-318" value="course_name" style="shape=partialRectangle;html=1;whiteSpace=wrap;connectable=0;strokeColor=inherit;overflow=hidden;fillColor=none;top=0;left=0;bottom=0;right=0;pointerEvents=1;fontSize=12;" vertex="1" parent="D1-AjjTe4C6SUy-_Dg9c-317">
          <mxGeometry width="183" height="40" as="geometry">
            <mxRectangle width="183" height="40" as="alternateBounds" />
          </mxGeometry>
        </mxCell>
        <mxCell id="D1-AjjTe4C6SUy-_Dg9c-319" value="VARCHAR(50)" style="shape=partialRectangle;html=1;whiteSpace=wrap;connectable=0;strokeColor=inherit;overflow=hidden;fillColor=none;top=0;left=0;bottom=0;right=0;pointerEvents=1;fontSize=12;" vertex="1" parent="D1-AjjTe4C6SUy-_Dg9c-317">
          <mxGeometry x="183" width="182" height="40" as="geometry">
            <mxRectangle width="182" height="40" as="alternateBounds" />
          </mxGeometry>
        </mxCell>
        <mxCell id="D1-AjjTe4C6SUy-_Dg9c-320" value="NOTNULL" style="shape=partialRectangle;html=1;whiteSpace=wrap;connectable=0;strokeColor=inherit;overflow=hidden;fillColor=none;top=0;left=0;bottom=0;right=0;pointerEvents=1;fontSize=12;" vertex="1" parent="D1-AjjTe4C6SUy-_Dg9c-317">
          <mxGeometry x="365" width="183" height="40" as="geometry">
            <mxRectangle width="183" height="40" as="alternateBounds" />
          </mxGeometry>
        </mxCell>
        <mxCell id="D1-AjjTe4C6SUy-_Dg9c-321" value="index" style="shape=partialRectangle;html=1;whiteSpace=wrap;connectable=0;strokeColor=inherit;overflow=hidden;fillColor=none;top=0;left=0;bottom=0;right=0;pointerEvents=1;fontSize=12;" vertex="1" parent="D1-AjjTe4C6SUy-_Dg9c-317">
          <mxGeometry x="548" width="92" height="40" as="geometry">
            <mxRectangle width="92" height="40" as="alternateBounds" />
          </mxGeometry>
        </mxCell>
        <mxCell id="D1-AjjTe4C6SUy-_Dg9c-322" style="shape=tableRow;horizontal=0;startSize=0;swimlaneHead=0;swimlaneBody=0;strokeColor=inherit;top=0;left=0;bottom=0;right=0;collapsible=0;dropTarget=0;fillColor=none;points=[[0,0.5],[1,0.5]];portConstraint=eastwest;fontSize=12;" vertex="1" parent="D1-AjjTe4C6SUy-_Dg9c-306">
          <mxGeometry y="150" width="640" height="40" as="geometry" />
        </mxCell>
        <mxCell id="D1-AjjTe4C6SUy-_Dg9c-323" value="degree_course_id" style="shape=partialRectangle;html=1;whiteSpace=wrap;connectable=0;strokeColor=inherit;overflow=hidden;fillColor=none;top=0;left=0;bottom=0;right=0;pointerEvents=1;fontSize=12;" vertex="1" parent="D1-AjjTe4C6SUy-_Dg9c-322">
          <mxGeometry width="183" height="40" as="geometry">
            <mxRectangle width="183" height="40" as="alternateBounds" />
          </mxGeometry>
        </mxCell>
        <mxCell id="D1-AjjTe4C6SUy-_Dg9c-324" value="" style="shape=partialRectangle;html=1;whiteSpace=wrap;connectable=0;strokeColor=inherit;overflow=hidden;fillColor=none;top=0;left=0;bottom=0;right=0;pointerEvents=1;fontSize=12;" vertex="1" parent="D1-AjjTe4C6SUy-_Dg9c-322">
          <mxGeometry x="183" width="182" height="40" as="geometry">
            <mxRectangle width="182" height="40" as="alternateBounds" />
          </mxGeometry>
        </mxCell>
        <mxCell id="D1-AjjTe4C6SUy-_Dg9c-325" value="UNIQUE" style="shape=partialRectangle;html=1;whiteSpace=wrap;connectable=0;strokeColor=inherit;overflow=hidden;fillColor=none;top=0;left=0;bottom=0;right=0;pointerEvents=1;fontSize=12;" vertex="1" parent="D1-AjjTe4C6SUy-_Dg9c-322">
          <mxGeometry x="365" width="183" height="40" as="geometry">
            <mxRectangle width="183" height="40" as="alternateBounds" />
          </mxGeometry>
        </mxCell>
        <mxCell id="D1-AjjTe4C6SUy-_Dg9c-326" value="FK" style="shape=partialRectangle;html=1;whiteSpace=wrap;connectable=0;strokeColor=inherit;overflow=hidden;fillColor=none;top=0;left=0;bottom=0;right=0;pointerEvents=1;fontSize=12;" vertex="1" parent="D1-AjjTe4C6SUy-_Dg9c-322">
          <mxGeometry x="548" width="92" height="40" as="geometry">
            <mxRectangle width="92" height="40" as="alternateBounds" />
          </mxGeometry>
        </mxCell>
        <mxCell id="D1-AjjTe4C6SUy-_Dg9c-327" value="TINYINT UNSIGNED" style="shape=partialRectangle;html=1;whiteSpace=wrap;connectable=0;strokeColor=inherit;overflow=hidden;fillColor=none;top=0;left=0;bottom=0;right=0;pointerEvents=1;fontSize=12;" vertex="1" parent="1">
          <mxGeometry x="723" y="-130" width="182" height="40" as="geometry">
            <mxRectangle width="182" height="40" as="alternateBounds" />
          </mxGeometry>
        </mxCell>
        <mxCell id="D1-AjjTe4C6SUy-_Dg9c-332" value="degree_courses" style="shape=table;startSize=30;container=1;collapsible=1;childLayout=tableLayout;fixedRows=1;rowLines=0;fontStyle=1;align=center;resizeLast=1;html=1;" vertex="1" parent="1">
          <mxGeometry x="-330" y="400" width="180" height="120" as="geometry" />
        </mxCell>
        <mxCell id="D1-AjjTe4C6SUy-_Dg9c-333" value="" style="shape=tableRow;horizontal=0;startSize=0;swimlaneHead=0;swimlaneBody=0;fillColor=none;collapsible=0;dropTarget=0;points=[[0,0.5],[1,0.5]];portConstraint=eastwest;top=0;left=0;right=0;bottom=1;" vertex="1" parent="D1-AjjTe4C6SUy-_Dg9c-332">
          <mxGeometry y="30" width="180" height="30" as="geometry" />
        </mxCell>
        <mxCell id="D1-AjjTe4C6SUy-_Dg9c-334" value="PK" style="shape=partialRectangle;connectable=0;fillColor=none;top=0;left=0;bottom=0;right=0;fontStyle=1;overflow=hidden;whiteSpace=wrap;html=1;" vertex="1" parent="D1-AjjTe4C6SUy-_Dg9c-333">
          <mxGeometry width="30" height="30" as="geometry">
            <mxRectangle width="30" height="30" as="alternateBounds" />
          </mxGeometry>
        </mxCell>
        <mxCell id="D1-AjjTe4C6SUy-_Dg9c-335" value="id" style="shape=partialRectangle;connectable=0;fillColor=none;top=0;left=0;bottom=0;right=0;align=left;spacingLeft=6;fontStyle=5;overflow=hidden;whiteSpace=wrap;html=1;" vertex="1" parent="D1-AjjTe4C6SUy-_Dg9c-333">
          <mxGeometry x="30" width="150" height="30" as="geometry">
            <mxRectangle width="150" height="30" as="alternateBounds" />
          </mxGeometry>
        </mxCell>
        <mxCell id="D1-AjjTe4C6SUy-_Dg9c-336" value="" style="shape=tableRow;horizontal=0;startSize=0;swimlaneHead=0;swimlaneBody=0;fillColor=none;collapsible=0;dropTarget=0;points=[[0,0.5],[1,0.5]];portConstraint=eastwest;top=0;left=0;right=0;bottom=0;" vertex="1" parent="D1-AjjTe4C6SUy-_Dg9c-332">
          <mxGeometry y="60" width="180" height="30" as="geometry" />
        </mxCell>
        <mxCell id="D1-AjjTe4C6SUy-_Dg9c-337" value="" style="shape=partialRectangle;connectable=0;fillColor=none;top=0;left=0;bottom=0;right=0;editable=1;overflow=hidden;whiteSpace=wrap;html=1;" vertex="1" parent="D1-AjjTe4C6SUy-_Dg9c-336">
          <mxGeometry width="30" height="30" as="geometry">
            <mxRectangle width="30" height="30" as="alternateBounds" />
          </mxGeometry>
        </mxCell>
        <mxCell id="D1-AjjTe4C6SUy-_Dg9c-338" value="degree_courses_name" style="shape=partialRectangle;connectable=0;fillColor=none;top=0;left=0;bottom=0;right=0;align=left;spacingLeft=6;overflow=hidden;whiteSpace=wrap;html=1;" vertex="1" parent="D1-AjjTe4C6SUy-_Dg9c-336">
          <mxGeometry x="30" width="150" height="30" as="geometry">
            <mxRectangle width="150" height="30" as="alternateBounds" />
          </mxGeometry>
        </mxCell>
        <mxCell id="D1-AjjTe4C6SUy-_Dg9c-340" style="shape=tableRow;horizontal=0;startSize=0;swimlaneHead=0;swimlaneBody=0;fillColor=none;collapsible=0;dropTarget=0;points=[[0,0.5],[1,0.5]];portConstraint=eastwest;top=0;left=0;right=0;bottom=0;" vertex="1" parent="D1-AjjTe4C6SUy-_Dg9c-332">
          <mxGeometry y="90" width="180" height="30" as="geometry" />
        </mxCell>
        <mxCell id="D1-AjjTe4C6SUy-_Dg9c-341" value="FK" style="shape=partialRectangle;connectable=0;fillColor=none;top=0;left=0;bottom=0;right=0;editable=1;overflow=hidden;whiteSpace=wrap;html=1;" vertex="1" parent="D1-AjjTe4C6SUy-_Dg9c-340">
          <mxGeometry width="30" height="30" as="geometry">
            <mxRectangle width="30" height="30" as="alternateBounds" />
          </mxGeometry>
        </mxCell>
        <mxCell id="D1-AjjTe4C6SUy-_Dg9c-342" value="department_id" style="shape=partialRectangle;connectable=0;fillColor=none;top=0;left=0;bottom=0;right=0;align=left;spacingLeft=6;overflow=hidden;whiteSpace=wrap;html=1;" vertex="1" parent="D1-AjjTe4C6SUy-_Dg9c-340">
          <mxGeometry x="30" width="150" height="30" as="geometry">
            <mxRectangle width="150" height="30" as="alternateBounds" />
          </mxGeometry>
        </mxCell>
        <mxCell id="D1-AjjTe4C6SUy-_Dg9c-346" value="1" style="text;html=1;strokeColor=none;fillColor=none;align=center;verticalAlign=middle;whiteSpace=wrap;rounded=0;" vertex="1" parent="1">
          <mxGeometry x="-770" y="424" width="30" height="26" as="geometry" />
        </mxCell>
        <mxCell id="D1-AjjTe4C6SUy-_Dg9c-349" value="Text" style="text;html=1;strokeColor=none;fillColor=none;align=center;verticalAlign=middle;whiteSpace=wrap;rounded=0;" vertex="1" parent="1">
          <mxGeometry x="690" y="170" width="60" height="30" as="geometry" />
        </mxCell>
        <mxCell id="D1-AjjTe4C6SUy-_Dg9c-350" value="*" style="text;html=1;strokeColor=none;fillColor=none;align=center;verticalAlign=middle;whiteSpace=wrap;rounded=0;" vertex="1" parent="1">
          <mxGeometry x="-370" y="484" width="30" height="26" as="geometry" />
        </mxCell>
        <mxCell id="D1-AjjTe4C6SUy-_Dg9c-351" value="1" style="text;html=1;strokeColor=none;fillColor=none;align=center;verticalAlign=middle;whiteSpace=wrap;rounded=0;" vertex="1" parent="1">
          <mxGeometry x="670" y="210" width="30" height="26" as="geometry" />
        </mxCell>
        <mxCell id="D1-AjjTe4C6SUy-_Dg9c-352" value="*" style="text;html=1;strokeColor=none;fillColor=none;align=center;verticalAlign=middle;whiteSpace=wrap;rounded=0;" vertex="1" parent="1">
          <mxGeometry x="720" y="210" width="30" height="26" as="geometry" />
        </mxCell>
        <mxCell id="D1-AjjTe4C6SUy-_Dg9c-355" value="1" style="text;html=1;strokeColor=none;fillColor=none;align=center;verticalAlign=middle;whiteSpace=wrap;rounded=0;" vertex="1" parent="1">
          <mxGeometry x="-360" y="420" width="30" height="26" as="geometry" />
        </mxCell>
        <mxCell id="D1-AjjTe4C6SUy-_Dg9c-356" value="*" style="text;html=1;strokeColor=none;fillColor=none;align=center;verticalAlign=middle;whiteSpace=wrap;rounded=0;" vertex="1" parent="1">
          <mxGeometry x="-10" y="484" width="30" height="26" as="geometry" />
        </mxCell>
        <mxCell id="D1-AjjTe4C6SUy-_Dg9c-357" value="degree_course_id" style="shape=partialRectangle;connectable=0;fillColor=none;top=0;left=0;bottom=0;right=0;align=left;spacingLeft=6;overflow=hidden;whiteSpace=wrap;html=1;" vertex="1" parent="1">
          <mxGeometry x="60" y="490" width="150" height="30" as="geometry">
            <mxRectangle width="150" height="30" as="alternateBounds" />
          </mxGeometry>
        </mxCell>
      </root>
    </mxGraphModel>
  </diagram>
</mxfile>
